<mxfile host="app.diagrams.net" modified="2021-03-14T21:05:49.071Z" agent="5.0 (Linux; Android 10; SM-A305F) AppleWebKit/537.36 (KHTML, like Gecko) Chrome/88.0.4324.181 Mobile Safari/537.36" etag="78PVTFAmynPpAbuEveww" version="14.4.8" type="github">
  <diagram id="Yx2tALsULRWWZhIIkWzV" name="Page-1">
    <mxGraphModel dx="314" dy="191" grid="1" gridSize="10" guides="1" tooltips="1" connect="1" arrows="1" fold="1" page="1" pageScale="1" pageWidth="850" pageHeight="1100" math="0" shadow="0">
      <root>
        <mxCell id="0" />
        <mxCell id="1" parent="0" />
      </root>
    </mxGraphModel>
  </diagram>
</mxfile>
